<svg width="1200" height="900" viewBox="0 0 1200 900" fill="none" xmlns="http://www.w3.org/2000/svg">
  <defs>
    <linearGradient id="bg2" x1="80" y1="70" x2="1120" y2="830" gradientUnits="userSpaceOnUse">
      <stop offset="0" stop-color="#0F172A"/>
      <stop offset="0.52" stop-color="#1E293B"/>
      <stop offset="1" stop-color="#0B1120"/>
    </linearGradient>
    <linearGradient id="lens" x1="0" y1="0" x2="1" y2="1">
      <stop offset="0" stop-color="#38BDF8"/>
      <stop offset="1" stop-color="#22D3EE"/>
    </linearGradient>
  </defs>

  <rect width="1200" height="900" fill="url(#bg2)"/>

  <g opacity="0.2">
    <rect x="80" y="120" width="1040" height="660" rx="36" stroke="#38BDF8" stroke-width="2"/>
    <rect x="120" y="160" width="960" height="580" rx="30" stroke="#22D3EE" stroke-width="2"/>
  </g>

  <g>
    <rect x="180" y="230" width="420" height="320" rx="30" fill="#0B1228" stroke="#334155" stroke-width="3"/>
    <circle cx="390" cy="390" r="96" fill="#111827" stroke="#475569" stroke-width="10"/>
    <circle cx="390" cy="390" r="64" fill="url(#lens)"/>
    <circle cx="390" cy="390" r="26" fill="#0F172A"/>
    <circle cx="300" cy="300" r="16" fill="#38BDF8"/>
    <rect x="225" y="560" width="330" height="20" rx="10" fill="#38BDF8" fill-opacity="0.8"/>
  </g>

  <g>
    <rect x="610" y="300" width="410" height="300" rx="28" fill="#0C152F" stroke="#334155" stroke-width="3"/>
    <circle cx="740" cy="450" r="68" fill="#111827" stroke="#64748B" stroke-width="8"/>
    <circle cx="740" cy="450" r="42" fill="url(#lens)"/>
    <circle cx="740" cy="450" r="16" fill="#0F172A"/>

    <circle cx="895" cy="450" r="68" fill="#111827" stroke="#64748B" stroke-width="8"/>
    <circle cx="895" cy="450" r="42" fill="url(#lens)"/>
    <circle cx="895" cy="450" r="16" fill="#0F172A"/>

    <rect x="650" y="350" width="120" height="14" rx="7" fill="#38BDF8" fill-opacity="0.85"/>
    <rect x="830" y="350" width="120" height="14" rx="7" fill="#22D3EE" fill-opacity="0.8"/>
  </g>
</svg>
